<?xml version="1.0" standalone="no"?>
<!DOCTYPE svg PUBLIC "-//W3C//DTD SVG 20010904//EN"
 "http://www.w3.org/TR/2001/REC-SVG-20010904/DTD/svg10.dtd">
<svg version="1.0" xmlns="http://www.w3.org/2000/svg"
 width="387.000000pt" height="315.000000pt" viewBox="0 0 387.000000 315.000000"
 preserveAspectRatio="xMidYMid meet">
<metadata>
Created by potrace 1.16, written by Peter Selinger 2001-2019
</metadata>
<g transform="translate(0.000000,315.000000) scale(0.100000,-0.100000)"
fill="#000000" stroke="none">
<path d="M903 2488 c-35 -38 -73 -125 -130 -293 -30 -88 -59 -164 -64 -169 -5
-6 -9 -18 -9 -27 0 -23 -65 -174 -97 -224 -14 -22 -39 -47 -57 -55 -42 -20
-41 -45 1 -44 l31 2 -14 -34 c-33 -80 -3 -142 92 -189 78 -39 94 -52 94 -81 0
-43 -76 -59 -147 -29 -19 8 -39 15 -44 15 -5 0 -9 -23 -9 -50 0 -46 3 -52 28
-62 15 -6 57 -13 94 -16 113 -7 178 46 178 147 0 65 -35 107 -120 145 -63 29
-85 54 -75 86 8 26 43 34 106 26 46 -6 49 -5 49 16 0 13 3 33 6 45 5 18 0 23
-33 32 -21 6 -51 11 -68 11 -46 1 -14 14 104 44 68 17 131 26 182 26 68 0 81
-3 107 -25 36 -30 42 -31 42 -4 0 30 -56 49 -144 49 -76 0 -242 -29 -316 -55
-24 -8 -45 -13 -47 -11 -2 2 7 26 20 53 13 26 41 91 62 143 20 52 52 121 71
152 51 83 121 237 140 307 24 84 9 114 -33 69z"/>
<path d="M2386 2395 c-100 -38 -158 -127 -158 -239 0 -118 64 -212 169 -247
40 -13 169 -7 185 9 6 6 7 28 3 56 -6 38 -10 46 -24 40 -40 -17 -116 -15 -151
4 -141 77 -79 302 80 289 25 -2 52 -7 61 -11 13 -6 17 2 23 40 3 29 2 52 -4
58 -17 17 -141 17 -184 1z"/>
<path d="M1568 2218 l-3 -182 -50 -38 c-63 -48 -111 -52 -121 -11 -6 22 -2 30
17 42 69 45 105 111 60 111 -25 0 -80 -46 -92 -77 -18 -47 -104 -12 -111 45
-3 31 -23 28 -23 -4 0 -21 -93 -174 -106 -174 -8 0 0 38 25 115 14 45 14 51 0
65 -14 12 -17 13 -21 1 -3 -7 -17 -23 -31 -35 -14 -11 -47 -40 -74 -63 -27
-24 -53 -43 -58 -43 -15 0 -12 43 5 84 15 35 13 56 -5 56 -13 0 -40 -77 -40
-116 0 -61 35 -56 119 18 24 21 47 38 52 38 4 0 5 -33 2 -74 -4 -46 -2 -76 5
-80 12 -7 72 60 109 124 14 25 27 47 29 49 2 2 15 -6 30 -18 15 -11 39 -21 54
-21 23 0 27 -3 23 -24 -6 -29 27 -66 57 -66 30 0 81 23 117 54 l32 27 3 -58 3
-58 53 -3 52 -3 0 95 c0 94 0 96 23 96 20 0 32 -16 73 -95 l49 -95 58 0 59 0
-20 33 c-11 17 -36 62 -57 100 l-37 68 43 37 c38 34 42 43 47 94 5 68 -17 122
-62 149 -26 16 -51 19 -158 19 l-128 0 -2 -182z"/>
<path d="M2020 2150 l0 -250 50 0 50 0 0 250 0 250 -50 0 -50 0 0 -250z"/>
<path d="M2680 2150 l0 -250 50 0 50 0 0 100 0 100 80 0 80 0 0 -100 0 -100
50 0 50 0 0 250 0 250 -50 0 -49 0 -3 -97 -3 -98 -75 0 -75 0 -3 98 -3 97 -49
0 -50 0 0 -250z"/>
<path d="M2367 1743 c-3 -6 -169 -412 -204 -500 -4 -10 10 -13 51 -13 54 0 58
1 67 30 l11 30 83 0 83 0 11 -30 c9 -28 13 -30 65 -30 31 0 56 2 56 3 0 10
-203 503 -210 510 -4 5 -10 5 -13 0z"/>
<path d="M957 1733 c-4 -3 -7 -118 -7 -255 l0 -248 50 0 50 0 0 95 0 95 53 0
c106 0 165 37 187 116 24 86 -24 176 -106 195 -45 10 -218 12 -227 2z m211
-109 c14 -10 22 -26 22 -44 0 -44 -23 -60 -86 -60 l-54 0 0 53 c0 30 3 57 7
60 12 13 89 7 111 -9z"/>
<path d="M1390 1485 l0 -255 50 0 50 0 0 95 0 95 28 0 c24 0 32 -10 75 -95
l49 -95 54 0 c30 0 54 2 54 5 0 3 -25 49 -55 103 -49 86 -53 98 -38 107 58 35
91 105 79 169 -9 48 -59 103 -104 116 -20 5 -83 10 -139 10 l-103 0 0 -255z
m218 139 c26 -18 29 -60 5 -86 -12 -13 -30 -18 -70 -18 l-53 0 0 60 0 60 48 0
c27 0 57 -7 70 -16z"/>
<path d="M1839 1528 c-1 -204 -1 -211 -16 -170 -15 44 -37 62 -53 46 -5 -5 -2
-33 6 -64 46 -177 -17 -559 -131 -796 -66 -136 -140 -200 -191 -166 -53 35
-68 205 -38 445 15 123 16 150 5 157 -11 6 -32 -27 -85 -134 -92 -183 -153
-274 -208 -310 -26 -17 -27 -17 -47 3 -18 18 -21 33 -21 99 0 159 87 411 205
592 45 71 51 100 21 100 -26 0 -56 -41 -106 -145 -160 -334 -204 -695 -85
-695 53 0 142 102 251 287 l19 31 0 -161 c0 -182 9 -228 56 -282 106 -120 260
94 364 505 21 80 55 298 55 345 0 12 25 15 128 17 l127 3 3 48 3 47 -80 0 -81
0 0 50 0 49 63 3 62 3 3 48 3 47 -65 0 -66 0 0 55 0 55 75 0 75 0 0 50 0 50
-125 0 -125 0 -1 -212z"/>
<path d="M2680 1486 l0 -256 85 0 c47 0 85 -2 85 -4 0 -3 -15 -36 -34 -73 -18
-37 -37 -78 -40 -90 -7 -21 -13 -23 -77 -23 -38 0 -69 2 -69 5 0 2 9 27 20 55
23 57 29 125 13 141 -18 18 -77 -44 -118 -123 -21 -40 -38 -74 -39 -75 -1 0
-52 -6 -113 -12 -121 -12 -143 -17 -143 -34 0 -7 39 -8 120 -3 l121 7 -14 -28
c-8 -15 -29 -68 -46 -118 -33 -92 -69 -143 -123 -171 -36 -19 -45 -18 -58 6
-8 14 -7 36 3 79 8 33 11 64 8 69 -3 5 -21 10 -38 11 -18 0 -46 2 -63 2 -39 2
-73 -22 -116 -81 -45 -63 -121 -112 -166 -108 -30 3 -33 6 -36 40 -3 32 1 39
26 52 61 32 104 108 68 122 -43 16 -123 -71 -133 -145 -12 -91 54 -117 153
-61 49 28 52 28 57 10 10 -37 46 -23 116 45 37 36 72 65 77 65 5 0 7 -24 6
-54 -3 -48 -1 -56 20 -70 28 -18 70 -9 121 27 l28 19 -5 -24 c-30 -128 -33
-172 -14 -213 13 -29 44 -33 87 -11 32 17 131 121 168 178 14 21 27 37 29 36
1 -2 -6 -39 -17 -83 -11 -44 -23 -123 -26 -175 -5 -86 -4 -97 15 -120 16 -19
23 -22 32 -14 9 9 9 18 -1 35 -38 68 8 326 83 469 21 41 55 110 76 152 l37 78
53 0 c28 0 52 -1 52 -3 0 -1 -21 -54 -46 -117 -25 -63 -46 -124 -48 -135 -1
-11 -13 -50 -25 -87 -23 -70 -25 -109 -4 -115 6 -3 41 40 76 94 35 54 74 107
85 117 22 19 22 19 22 -8 0 -39 25 -93 49 -105 16 -9 27 -8 49 3 32 16 102 90
102 107 0 19 -17 5 -52 -41 -19 -25 -43 -46 -55 -48 -26 -4 -53 32 -53 71 0
32 -16 67 -30 67 -18 0 -78 -61 -110 -111 -18 -27 -34 -48 -36 -46 -2 2 5 31
16 65 13 43 35 84 72 130 30 37 69 89 87 115 l32 48 77 -7 c42 -4 82 -8 89 -8
6 -1 13 4 15 9 2 6 -31 13 -76 17 -43 4 -80 9 -82 11 -3 2 8 30 23 63 32 71
37 137 10 142 -25 5 -97 -71 -139 -147 l-33 -61 -54 0 c-38 0 -52 3 -48 13 12
32 46 145 51 168 4 17 16 31 36 39 67 28 130 138 130 226 0 48 -29 128 -61
167 -47 57 -107 79 -231 85 l-108 5 0 -257z m227 129 c64 -42 84 -150 40 -216
-27 -41 -79 -69 -129 -69 l-38 0 0 156 0 157 51 -6 c28 -4 62 -13 76 -22z
m-193 -727 c-50 -151 -114 -257 -208 -346 -90 -86 -126 -68 -113 56 10 87 35
149 93 224 29 38 69 95 89 128 39 64 44 67 126 69 l56 1 -43 -132z"/>
</g>
</svg>
